M48
;Layer_Color=9474304
;FILE_FORMAT=4:4
METRIC,LZ
;TYPE=PLATED
T01F00S00C0.3048
T02F00S00C0.3556
%
T01
X0042926Y0026289
Y0028067
X0043053Y0030099
X004318Y0032131
X0043815Y0033147
X00443538Y00336858
X0044958Y0033655
X004318Y0034163
Y0035814
X0044323Y0037465
X0046228
X0045974Y0036449
X004826Y0037465
X0048895Y003556
X00494538Y00338328
X0049403Y0032766
X00499364Y0031877
X0048387Y0032258
X0047384Y0032205
X0046609Y0032385
X0046482Y0031115
X0045593
X0044704
X00453423Y00294725
X0045593Y0026162
X0047117Y0025781
X0049022Y0026289
X0048514Y0026924
X0050292Y002719
Y0028067
Y0028829
X0049022Y002921
X0049657Y0025781
X0051562
X005334Y0025908
X0053467Y0027178
Y0029845
Y0032385
Y0034925
X0052959Y003556
X0053213Y0037211
X0051054Y0037465
T02
X00488642Y00343208
M30
