G04*
G04 #@! TF.GenerationSoftware,Altium Limited,Altium Designer,26.3.0 (6)*
G04*
G04 Layer_Physical_Order=2*
G04 Layer_Color=16711680*
%FSLAX44Y44*%
%MOMM*%
G71*
G04*
G04 #@! TF.SameCoordinates,8CC6794D-4A06-4C0D-8B41-CA3E8BEBCD13*
G04*
G04*
G04 #@! TF.FilePolarity,Positive*
G04*
G01*
G75*
%ADD25C,0.6096*%
%ADD28C,0.1524*%
%ADD29R,0.3200X0.1800*%
%ADD30R,0.4200X0.3000*%
%ADD31R,0.3200X0.4600*%
G36*
X548640Y256540D02*
X543560Y251460D01*
X518874D01*
X518571Y252984D01*
X518785Y253073D01*
X520357Y254645D01*
X521142Y256540D01*
X510098D01*
X510883Y254645D01*
X512455Y253073D01*
X512669Y252984D01*
X512366Y251460D01*
X499824D01*
X499521Y252984D01*
X499735Y253073D01*
X501307Y254645D01*
X502092Y256540D01*
X496570D01*
Y257810D01*
X495300D01*
Y263509D01*
X493979Y264435D01*
X493665Y265192D01*
X492522Y266335D01*
X492033Y266538D01*
Y288452D01*
X492522Y288655D01*
X493665Y289798D01*
X494284Y291292D01*
Y292908D01*
X493665Y294402D01*
X492522Y295545D01*
X491028Y296164D01*
X489412D01*
X487918Y295545D01*
X486775Y294402D01*
X486156Y292908D01*
Y291292D01*
X486775Y289798D01*
X487918Y288655D01*
X488407Y288452D01*
Y275585D01*
X486883Y274566D01*
X486410Y274762D01*
Y269240D01*
X485140D01*
Y267970D01*
X479618D01*
X480403Y266075D01*
X481975Y264503D01*
X484029Y263652D01*
X486156D01*
Y262082D01*
X486775Y260588D01*
X487918Y259445D01*
X489412Y258826D01*
X490982D01*
Y256698D01*
X491833Y254645D01*
X493405Y253073D01*
X493619Y252984D01*
X493316Y251460D01*
X474424D01*
X474121Y252984D01*
X474335Y253073D01*
X475907Y254645D01*
X476692Y256540D01*
X465648D01*
X466433Y254645D01*
X468005Y253073D01*
X468219Y252984D01*
X467916Y251460D01*
X412750D01*
Y392430D01*
X410348Y394832D01*
X410931Y396240D01*
X548640D01*
Y256540D01*
D02*
G37*
%LPC*%
G36*
X511810Y380172D02*
Y375920D01*
X516062D01*
X515277Y377815D01*
X513705Y379387D01*
X511810Y380172D01*
D02*
G37*
G36*
X509270D02*
X507375Y379387D01*
X505803Y377815D01*
X505018Y375920D01*
X509270D01*
Y380172D01*
D02*
G37*
G36*
X483870D02*
Y375920D01*
X488122D01*
X487337Y377815D01*
X485765Y379387D01*
X483870Y380172D01*
D02*
G37*
G36*
X481330D02*
X479435Y379387D01*
X477863Y377815D01*
X477078Y375920D01*
X481330D01*
Y380172D01*
D02*
G37*
G36*
X463550D02*
Y375920D01*
X467802D01*
X467017Y377815D01*
X465445Y379387D01*
X463550Y380172D01*
D02*
G37*
G36*
X461010D02*
X459115Y379387D01*
X457543Y377815D01*
X456758Y375920D01*
X461010D01*
Y380172D01*
D02*
G37*
G36*
X444500D02*
Y375920D01*
X448752D01*
X447967Y377815D01*
X446395Y379387D01*
X444500Y380172D01*
D02*
G37*
G36*
X441960D02*
X440065Y379387D01*
X438493Y377815D01*
X437708Y375920D01*
X441960D01*
Y380172D01*
D02*
G37*
G36*
X533400Y377632D02*
Y373380D01*
X537652D01*
X536867Y375275D01*
X535295Y376847D01*
X533400Y377632D01*
D02*
G37*
G36*
X530860D02*
X528965Y376847D01*
X527393Y375275D01*
X526608Y373380D01*
X530860D01*
Y377632D01*
D02*
G37*
G36*
X516062Y373380D02*
X505018D01*
X505214Y372907D01*
X504195Y371383D01*
X488945D01*
X487926Y372907D01*
X488122Y373380D01*
X477078D01*
X477274Y372907D01*
X476255Y371383D01*
X468625D01*
X467606Y372907D01*
X467802Y373380D01*
X456758D01*
X456954Y372907D01*
X455935Y371383D01*
X449580D01*
X449574Y371382D01*
X448448Y372645D01*
X448752Y373380D01*
X444500D01*
Y368862D01*
X445224Y367778D01*
X438156Y360709D01*
X436661Y361007D01*
X436537Y361305D01*
X434965Y362877D01*
X433070Y363662D01*
Y358140D01*
Y352618D01*
X434813Y353340D01*
X436337Y352783D01*
Y346987D01*
X434813Y346430D01*
X433070Y347152D01*
Y341630D01*
Y336108D01*
X434258Y336600D01*
X435768Y335793D01*
X435848Y334915D01*
X434705Y333772D01*
X434086Y332278D01*
Y330662D01*
X434705Y329168D01*
X435848Y328025D01*
X437342Y327406D01*
X438958D01*
X440452Y328025D01*
X441595Y329168D01*
X442214Y330662D01*
Y330720D01*
X442268Y330860D01*
Y336858D01*
Y342380D01*
X441487Y342057D01*
X439963Y343075D01*
Y357389D01*
X450331Y367757D01*
X455269D01*
X456063Y366233D01*
X455676Y365298D01*
Y363682D01*
X456295Y362188D01*
X457438Y361045D01*
X458932Y360426D01*
X460548D01*
X462042Y361045D01*
X463185Y362188D01*
X463388Y362677D01*
X480394D01*
X481495Y361576D01*
Y330762D01*
X481633Y330068D01*
X482026Y329480D01*
X483338Y328168D01*
X483215Y327490D01*
X482811Y326540D01*
X481568Y326025D01*
X480425Y324882D01*
X480395Y324810D01*
X478745D01*
X478577Y325215D01*
X477005Y326787D01*
X475110Y327572D01*
Y322050D01*
Y316528D01*
X477005Y317313D01*
X478577Y318885D01*
X478965Y319820D01*
X479481Y319982D01*
X480693Y320010D01*
X481568Y319135D01*
X483062Y318516D01*
X484678D01*
X485867Y317722D01*
Y311150D01*
X486005Y310456D01*
X486398Y309868D01*
X486976Y309291D01*
X486392Y307883D01*
X470651D01*
X468681Y309852D01*
X468884Y310342D01*
Y311958D01*
X468265Y313452D01*
X467122Y314595D01*
X465628Y315214D01*
X464012D01*
X462518Y314595D01*
X462294Y314371D01*
X460667Y314315D01*
X459095Y315887D01*
X457200Y316672D01*
Y311150D01*
Y305628D01*
X459095Y306413D01*
X460667Y307985D01*
X462294Y307929D01*
X462518Y307705D01*
X464012Y307086D01*
X465628D01*
X466118Y307289D01*
X468618Y304788D01*
X469206Y304395D01*
X469900Y304257D01*
X487699D01*
X491976Y299979D01*
X492565Y299586D01*
X493258Y299448D01*
X493453Y299487D01*
X507924D01*
Y293344D01*
X506400Y292713D01*
X506085Y293027D01*
X504190Y293812D01*
Y288290D01*
X502920D01*
Y287020D01*
X497398D01*
X498183Y285125D01*
X498827Y284480D01*
X498183Y283835D01*
X497398Y281940D01*
X502920D01*
Y279400D01*
X497398D01*
X498183Y277505D01*
X499402Y276285D01*
X498183Y275065D01*
X497398Y273170D01*
X502920D01*
Y271900D01*
X504190D01*
Y266378D01*
X504931Y266685D01*
X506400Y267060D01*
Y267060D01*
X506400Y267060D01*
X507924D01*
Y263884D01*
X511800D01*
X512114Y263243D01*
X512267Y262360D01*
X510883Y260975D01*
X510098Y259080D01*
X514350D01*
Y264031D01*
X514156Y264806D01*
Y267060D01*
X514680D01*
Y268500D01*
X521400D01*
Y267060D01*
X521924D01*
Y263884D01*
X526632D01*
X528146Y263884D01*
X528166Y263864D01*
X528605Y262556D01*
X528663Y262245D01*
X528412Y261640D01*
X527878Y260350D01*
X532130D01*
Y264602D01*
X530235Y263817D01*
X529241Y262823D01*
X528400Y263653D01*
X528156Y265113D01*
X528156Y265982D01*
X529234Y267060D01*
X529680D01*
X529680Y267060D01*
Y267060D01*
X531204Y267343D01*
X531505Y267043D01*
X533400Y266258D01*
Y271780D01*
Y277302D01*
X531505Y276517D01*
X531204Y276217D01*
X529680Y276740D01*
Y276740D01*
X528156D01*
Y285384D01*
Y295884D01*
X529680Y295895D01*
X529933Y295285D01*
X531505Y293713D01*
X533400Y292928D01*
Y298450D01*
Y303972D01*
X531505Y303187D01*
X529933Y301615D01*
X529680Y301005D01*
X528156Y301308D01*
Y309884D01*
Y319974D01*
X528605Y320063D01*
X529933Y320685D01*
X531505Y319113D01*
X533400Y318328D01*
Y323850D01*
Y329372D01*
X532927Y329176D01*
X531403Y330195D01*
Y342905D01*
X532927Y343924D01*
X533400Y343728D01*
Y349250D01*
X534670D01*
Y350520D01*
X540192D01*
X539407Y352415D01*
X537835Y353987D01*
X535782Y354838D01*
X533654D01*
Y356408D01*
X533035Y357902D01*
X531892Y359045D01*
X530398Y359664D01*
X528782D01*
X528292Y359461D01*
X516902Y370852D01*
X516314Y371245D01*
X515849Y372864D01*
X516062Y373380D01*
D02*
G37*
G36*
X441960D02*
X437708D01*
X438493Y371485D01*
X440065Y369913D01*
X441960Y369128D01*
Y373380D01*
D02*
G37*
G36*
X537652Y370840D02*
X533400D01*
Y366588D01*
X535295Y367373D01*
X536867Y368945D01*
X537652Y370840D01*
D02*
G37*
G36*
X530860D02*
X526608D01*
X527393Y368945D01*
X528965Y367373D01*
X530860Y366588D01*
Y370840D01*
D02*
G37*
G36*
X430530Y363662D02*
X428635Y362877D01*
X427063Y361305D01*
X426278Y359410D01*
X430530D01*
Y363662D01*
D02*
G37*
G36*
Y356870D02*
X426278D01*
X427063Y354975D01*
X428635Y353403D01*
X430530Y352618D01*
Y356870D01*
D02*
G37*
G36*
X540192Y347980D02*
X535940D01*
Y343728D01*
X537835Y344513D01*
X539407Y346085D01*
X540192Y347980D01*
D02*
G37*
G36*
X430530Y347152D02*
X428635Y346367D01*
X427063Y344795D01*
X426278Y342900D01*
X430530D01*
Y347152D01*
D02*
G37*
G36*
X450850Y342072D02*
Y337820D01*
X455102D01*
X454317Y339715D01*
X452745Y341287D01*
X450850Y342072D01*
D02*
G37*
G36*
X430530Y340360D02*
X426278D01*
X427063Y338465D01*
X428635Y336893D01*
X430530Y336108D01*
Y340360D01*
D02*
G37*
G36*
X455102Y335280D02*
X450850D01*
Y331028D01*
X452745Y331813D01*
X454317Y333385D01*
X455102Y335280D01*
D02*
G37*
G36*
X444808Y342380D02*
Y336858D01*
Y331336D01*
X446281Y331946D01*
X446415Y331813D01*
X448310Y331028D01*
Y336550D01*
Y342072D01*
X446837Y341462D01*
X446703Y341595D01*
X444808Y342380D01*
D02*
G37*
G36*
X535940Y329372D02*
Y325120D01*
X540192D01*
X539407Y327015D01*
X537835Y328587D01*
X535940Y329372D01*
D02*
G37*
G36*
X464820D02*
X462925Y328587D01*
X461353Y327015D01*
X460568Y325120D01*
X464820D01*
Y329372D01*
D02*
G37*
G36*
X433070Y326832D02*
Y322580D01*
X437322D01*
X436537Y324475D01*
X434965Y326047D01*
X433070Y326832D01*
D02*
G37*
G36*
X430530D02*
X428635Y326047D01*
X427063Y324475D01*
X426278Y322580D01*
X430530D01*
Y326832D01*
D02*
G37*
G36*
X540192Y322580D02*
X535940D01*
Y318328D01*
X537835Y319113D01*
X539407Y320685D01*
X540192Y322580D01*
D02*
G37*
G36*
X464820D02*
X460568D01*
X461353Y320685D01*
X462925Y319113D01*
X464820Y318328D01*
Y322580D01*
D02*
G37*
G36*
X467360Y329372D02*
Y323850D01*
Y318328D01*
X469044Y319025D01*
X469103Y318885D01*
X470675Y317313D01*
X472570Y316528D01*
Y322050D01*
Y327572D01*
X470886Y326875D01*
X470827Y327015D01*
X469255Y328587D01*
X467360Y329372D01*
D02*
G37*
G36*
X437322Y320040D02*
X433070D01*
Y315788D01*
X434965Y316573D01*
X436537Y318145D01*
X437322Y320040D01*
D02*
G37*
G36*
X430530D02*
X426278D01*
X427063Y318145D01*
X428635Y316573D01*
X430530Y315788D01*
Y320040D01*
D02*
G37*
G36*
X454660Y316672D02*
X452765Y315887D01*
X451485Y314608D01*
X450205Y315887D01*
X448310Y316672D01*
Y311150D01*
Y305628D01*
X450205Y306413D01*
X451485Y307692D01*
X452765Y306413D01*
X454660Y305628D01*
Y311150D01*
Y316672D01*
D02*
G37*
G36*
X445770D02*
X443875Y315887D01*
X442303Y314315D01*
X441518Y312420D01*
X445770D01*
Y316672D01*
D02*
G37*
G36*
Y309880D02*
X441518D01*
X442303Y307985D01*
X443875Y306413D01*
X445770Y305628D01*
Y309880D01*
D02*
G37*
G36*
X431800Y306512D02*
Y302260D01*
X436052D01*
X435267Y304155D01*
X433695Y305727D01*
X431800Y306512D01*
D02*
G37*
G36*
X429260D02*
X427365Y305727D01*
X425793Y304155D01*
X425008Y302260D01*
X429260D01*
Y306512D01*
D02*
G37*
G36*
X535940Y303972D02*
Y299720D01*
X540192D01*
X539407Y301615D01*
X537835Y303187D01*
X535940Y303972D01*
D02*
G37*
G36*
X454693Y300247D02*
Y295995D01*
X458946D01*
X458161Y297890D01*
X456589Y299462D01*
X454693Y300247D01*
D02*
G37*
G36*
X452153D02*
X450258Y299462D01*
X448686Y297890D01*
X447901Y295995D01*
X452153D01*
Y300247D01*
D02*
G37*
G36*
X436052Y299720D02*
X431800D01*
Y295468D01*
X433695Y296253D01*
X435267Y297825D01*
X436052Y299720D01*
D02*
G37*
G36*
X429260D02*
X425008D01*
X425793Y297825D01*
X427365Y296253D01*
X429260Y295468D01*
Y299720D01*
D02*
G37*
G36*
X540192Y297180D02*
X535940D01*
Y292928D01*
X537835Y293713D01*
X539407Y295285D01*
X540192Y297180D01*
D02*
G37*
G36*
X501650Y293812D02*
X499755Y293027D01*
X498183Y291455D01*
X497398Y289560D01*
X501650D01*
Y293812D01*
D02*
G37*
G36*
X458946Y293455D02*
X454693D01*
Y289202D01*
X456589Y289988D01*
X458161Y291559D01*
X458946Y293455D01*
D02*
G37*
G36*
X452153D02*
X447901D01*
X448686Y291559D01*
X450258Y289988D01*
X452153Y289202D01*
Y293455D01*
D02*
G37*
G36*
X430530Y286192D02*
Y281940D01*
X434782D01*
X433997Y283835D01*
X432425Y285407D01*
X430530Y286192D01*
D02*
G37*
G36*
X427990D02*
X426095Y285407D01*
X424523Y283835D01*
X423738Y281940D01*
X427990D01*
Y286192D01*
D02*
G37*
G36*
X434782Y279400D02*
X430530D01*
Y275148D01*
X432425Y275933D01*
X433997Y277505D01*
X434782Y279400D01*
D02*
G37*
G36*
X427990D02*
X423738D01*
X424523Y277505D01*
X426095Y275933D01*
X427990Y275148D01*
Y279400D01*
D02*
G37*
G36*
X535940Y277302D02*
Y273050D01*
X540192D01*
X539407Y274945D01*
X537835Y276517D01*
X535940Y277302D01*
D02*
G37*
G36*
X483870Y274762D02*
X481975Y273977D01*
X480403Y272405D01*
X479618Y270510D01*
X483870D01*
Y274762D01*
D02*
G37*
G36*
X501650Y270630D02*
X497398D01*
X498183Y268735D01*
X499755Y267163D01*
X501650Y266378D01*
Y270630D01*
D02*
G37*
G36*
X540192Y270510D02*
X535940D01*
Y266258D01*
X537835Y267043D01*
X539407Y268615D01*
X540192Y270510D01*
D02*
G37*
G36*
X430530Y268412D02*
Y264160D01*
X434782D01*
X433997Y266055D01*
X432425Y267627D01*
X430530Y268412D01*
D02*
G37*
G36*
X427990D02*
X426095Y267627D01*
X424523Y266055D01*
X423738Y264160D01*
X427990D01*
Y268412D01*
D02*
G37*
G36*
X457200Y267142D02*
Y262890D01*
X461452D01*
X460667Y264785D01*
X459095Y266357D01*
X457200Y267142D01*
D02*
G37*
G36*
X454660D02*
X452765Y266357D01*
X451193Y264785D01*
X450408Y262890D01*
X454660D01*
Y267142D01*
D02*
G37*
G36*
X534670Y264602D02*
Y260350D01*
X538922D01*
X538137Y262245D01*
X536565Y263817D01*
X534670Y264602D01*
D02*
G37*
G36*
X516890Y263332D02*
Y259080D01*
X521142D01*
X520357Y260975D01*
X518785Y262547D01*
X516890Y263332D01*
D02*
G37*
G36*
X497840D02*
Y259080D01*
X502092D01*
X501307Y260975D01*
X499735Y262547D01*
X497840Y263332D01*
D02*
G37*
G36*
X472440D02*
Y259080D01*
X476692D01*
X475907Y260975D01*
X474335Y262547D01*
X472440Y263332D01*
D02*
G37*
G36*
X469900D02*
X468005Y262547D01*
X466433Y260975D01*
X465648Y259080D01*
X469900D01*
Y263332D01*
D02*
G37*
G36*
X434782Y261620D02*
X430530D01*
Y257368D01*
X432425Y258153D01*
X433997Y259725D01*
X434782Y261620D01*
D02*
G37*
G36*
X427990D02*
X423738D01*
X424523Y259725D01*
X426095Y258153D01*
X427990Y257368D01*
Y261620D01*
D02*
G37*
G36*
X461452Y260350D02*
X457200D01*
Y256098D01*
X459095Y256883D01*
X460667Y258455D01*
X461452Y260350D01*
D02*
G37*
G36*
X454660D02*
X450408D01*
X451193Y258455D01*
X452765Y256883D01*
X454660Y256098D01*
Y260350D01*
D02*
G37*
G36*
X538922Y257810D02*
X534670D01*
Y253558D01*
X536565Y254343D01*
X538137Y255915D01*
X538922Y257810D01*
D02*
G37*
G36*
X532130D02*
X527878D01*
X528663Y255915D01*
X530235Y254343D01*
X532130Y253558D01*
Y257810D01*
D02*
G37*
%LPD*%
G36*
X525729Y356898D02*
X525526Y356408D01*
Y354792D01*
X526145Y353298D01*
X527288Y352155D01*
X527777Y351952D01*
Y341321D01*
X509765D01*
X509071Y341183D01*
X508483Y340790D01*
X507834Y340141D01*
X498186D01*
X497983Y340630D01*
X496840Y341773D01*
X495346Y342392D01*
X494114D01*
X493728Y342394D01*
X492706Y343618D01*
Y344016D01*
X492087Y345510D01*
X490944Y346654D01*
X489450Y347272D01*
X487833D01*
X486645Y346780D01*
X485597Y347224D01*
X485121Y347590D01*
Y349535D01*
X486645Y350507D01*
X487680Y350078D01*
Y355600D01*
Y361122D01*
X486645Y360694D01*
X485121Y361665D01*
Y362327D01*
X484983Y363021D01*
X484590Y363609D01*
X482427Y365772D01*
X481839Y366165D01*
X481495Y366233D01*
X481645Y367757D01*
X514869D01*
X525729Y356898D01*
D02*
G37*
%LPC*%
G36*
X490220Y361122D02*
Y356870D01*
X494472D01*
X493687Y358765D01*
X492115Y360337D01*
X490220Y361122D01*
D02*
G37*
G36*
X494472Y354330D02*
X490220D01*
Y350078D01*
X492115Y350863D01*
X493687Y352435D01*
X494472Y354330D01*
D02*
G37*
%LPD*%
D25*
X529590Y355600D02*
D03*
X494538Y338328D02*
D03*
X490220Y292100D02*
D03*
Y262890D02*
D03*
X438150Y331470D02*
D03*
X532130Y372110D02*
D03*
X510540Y374650D02*
D03*
X488950Y355600D02*
D03*
X482600Y374650D02*
D03*
X534670Y323850D02*
D03*
Y349250D02*
D03*
Y298450D02*
D03*
X473840Y322050D02*
D03*
X534670Y271780D02*
D03*
X502920Y280670D02*
D03*
Y271900D02*
D03*
X533400Y259080D02*
D03*
X515620Y257810D02*
D03*
X502920Y288290D02*
D03*
X485140Y269240D02*
D03*
X496570Y257810D02*
D03*
X471170D02*
D03*
X462280Y374650D02*
D03*
X466090Y323850D02*
D03*
X449580Y336550D02*
D03*
X443230Y374650D02*
D03*
X431800Y358140D02*
D03*
Y341630D02*
D03*
X443538Y336858D02*
D03*
X431800Y321310D02*
D03*
X455930Y311150D02*
D03*
X453423Y294725D02*
D03*
X455930Y261620D02*
D03*
X447040Y311150D02*
D03*
X430530Y300990D02*
D03*
X429260Y280670D02*
D03*
Y262890D02*
D03*
X459740Y364490D02*
D03*
X488642Y343208D02*
D03*
X499364Y318770D02*
D03*
X483870Y322580D02*
D03*
X494030Y327660D02*
D03*
X464820Y311150D02*
D03*
D28*
X515620Y369570D02*
X529590Y355600D01*
Y339509D02*
Y355600D01*
Y323417D02*
Y339509D01*
X509765D02*
X529590D01*
X508585Y338328D02*
X509765Y339509D01*
X504190Y338328D02*
X508585D01*
X494538D02*
X504190D01*
X527911Y321738D02*
X529590Y323417D01*
X504190Y322664D02*
Y338328D01*
Y322664D02*
X506654Y320200D01*
X526378Y321738D02*
X527911D01*
X525540Y320900D02*
X526378Y321738D01*
X507840Y320200D02*
X509270Y318770D01*
X506654Y320200D02*
X507840D01*
X490220Y262890D02*
Y292100D01*
X449580Y369570D02*
X515620D01*
X438150Y358140D02*
X449580Y369570D01*
X438150Y331470D02*
Y358140D01*
X502920Y271900D02*
X507880D01*
X525660Y271780D02*
X534670D01*
X525540Y271900D02*
X525660Y271780D01*
X507880Y271900D02*
X509270Y270510D01*
X459740Y364490D02*
X481145D01*
X483308Y330762D02*
Y362327D01*
X481145Y364490D02*
X483308Y362327D01*
Y330762D02*
X490728Y323342D01*
Y312420D02*
Y323342D01*
Y312420D02*
X495007Y308141D01*
X508737D01*
X488950Y335280D02*
X491236Y332994D01*
X496316D01*
X488642Y343208D02*
X488950Y342900D01*
Y335280D02*
Y342900D01*
X496316Y332994D02*
X499364Y329946D01*
Y318770D02*
Y329946D01*
X503437Y315300D02*
X507660D01*
X499967Y318770D02*
X503437Y315300D01*
X499364Y318770D02*
X499967D01*
X507660Y315300D02*
X507830Y315130D01*
X509270D01*
X483870Y322580D02*
X484745Y321705D01*
X487680Y311150D02*
X494189Y304641D01*
X487662Y321705D02*
X487680Y321687D01*
X484745Y321705D02*
X487662D01*
X487680Y311150D02*
Y321687D01*
X494189Y304641D02*
X508635D01*
X493776Y313944D02*
Y327406D01*
X494030Y327660D01*
X493776Y313944D02*
X496081Y311639D01*
X508873D01*
X508960Y301300D02*
X509270Y300990D01*
X493258Y301261D02*
X493297Y301300D01*
X508960D01*
X469900Y306070D02*
X488450D01*
X464820Y311150D02*
X469900Y306070D01*
X488450D02*
X493258Y301261D01*
D29*
X525540Y304800D02*
D03*
Y308300D02*
D03*
Y315300D02*
D03*
Y311800D02*
D03*
Y301300D02*
D03*
X510540D02*
D03*
X525540Y297800D02*
D03*
X510540D02*
D03*
X525540Y294300D02*
D03*
X510540D02*
D03*
X525540Y290800D02*
D03*
X510540D02*
D03*
X525540Y287300D02*
D03*
X510540D02*
D03*
X525540Y283800D02*
D03*
X510540D02*
D03*
X525540Y280300D02*
D03*
X510540D02*
D03*
X525540Y276800D02*
D03*
X510540D02*
D03*
Y311800D02*
D03*
Y304800D02*
D03*
Y315300D02*
D03*
Y308300D02*
D03*
D30*
X525040Y266400D02*
D03*
Y325700D02*
D03*
X511040D02*
D03*
Y266400D02*
D03*
D31*
X510540Y271900D02*
D03*
X525540D02*
D03*
Y320200D02*
D03*
X510540D02*
D03*
M02*
