G04*
G04 #@! TF.GenerationSoftware,Altium Limited,Altium Designer,26.3.0 (6)*
G04*
G04 Layer_Color=8421504*
%FSLAX44Y44*%
%MOMM*%
G71*
G04*
G04 #@! TF.SameCoordinates,757167C7-F4D3-4326-8035-5E9517D8C1C3*
G04*
G04*
G04 #@! TF.FilePolarity,Positive*
G04*
G01*
G75*
%ADD15R,0.6200X0.6200*%
%ADD16R,0.6000X0.5400*%
%ADD17R,0.3500X0.3000*%
%ADD18R,0.3000X0.3500*%
%ADD19R,0.5300X0.6000*%
%ADD20R,1.4500X1.3000*%
%ADD21R,0.6200X0.6200*%
G36*
X476260Y353495D02*
X473460D01*
Y358095D01*
X476260D01*
Y353495D01*
D02*
G37*
G36*
X471260D02*
X468460D01*
Y358095D01*
X471260D01*
Y353495D01*
D02*
G37*
G36*
X466260D02*
X463460D01*
Y358095D01*
X466260D01*
Y353495D01*
D02*
G37*
G36*
X461260D02*
X458460D01*
Y358095D01*
X461260D01*
Y353495D01*
D02*
G37*
G36*
X478785Y347770D02*
X474185D01*
Y350570D01*
X478785D01*
Y347770D01*
D02*
G37*
G36*
X460535D02*
X455935D01*
Y350570D01*
X460535D01*
Y347770D01*
D02*
G37*
G36*
X478785Y342770D02*
X474185D01*
Y345570D01*
X478785D01*
Y342770D01*
D02*
G37*
G36*
X460535D02*
X455935D01*
Y345570D01*
X460535D01*
Y342770D01*
D02*
G37*
G36*
X478785Y337770D02*
X474185D01*
Y340570D01*
X478785D01*
Y337770D01*
D02*
G37*
G36*
X460535D02*
X455935D01*
Y340570D01*
X460535D01*
Y337770D01*
D02*
G37*
G36*
X476260Y330245D02*
X473460D01*
Y334845D01*
X476260D01*
Y330245D01*
D02*
G37*
G36*
X471260D02*
X468460D01*
Y334845D01*
X471260D01*
Y330245D01*
D02*
G37*
G36*
X466260D02*
X463460D01*
Y334845D01*
X466260D01*
Y330245D01*
D02*
G37*
G36*
X461260D02*
X458460D01*
Y334845D01*
X461260D01*
Y330245D01*
D02*
G37*
D15*
X457210Y320040D02*
D03*
X448010D02*
D03*
X449890Y302260D02*
D03*
X440690D02*
D03*
X477040Y269240D02*
D03*
X467840D02*
D03*
D16*
X497840Y347980D02*
D03*
Y356620D02*
D03*
X510540Y347470D02*
D03*
Y356110D02*
D03*
D17*
X464940Y293330D02*
D03*
X480060Y293290D02*
D03*
X465060Y288290D02*
D03*
Y283290D02*
D03*
X480060D02*
D03*
Y298290D02*
D03*
X465060D02*
D03*
X480060Y288290D02*
D03*
D18*
X470060Y298290D02*
D03*
X475060Y283290D02*
D03*
X470060D02*
D03*
X475060Y298290D02*
D03*
D19*
X482020Y313260D02*
D03*
X473280D02*
D03*
D20*
X444500Y267970D02*
D03*
Y283970D02*
D03*
D21*
X445770Y344170D02*
D03*
Y353370D02*
D03*
M02*
