G04*
G04 #@! TF.GenerationSoftware,Altium Limited,Altium Designer,26.3.0 (6)*
G04*
G04 Layer_Physical_Order=1*
G04 Layer_Color=255*
%FSLAX44Y44*%
%MOMM*%
G71*
G04*
G04 #@! TF.SameCoordinates,8CC6794D-4A06-4C0D-8B41-CA3E8BEBCD13*
G04*
G04*
G04 #@! TF.FilePolarity,Positive*
G04*
G01*
G75*
%ADD15R,0.6200X0.6200*%
%ADD16R,0.6000X0.5400*%
%ADD17R,0.3500X0.3000*%
%ADD18R,0.3000X0.3500*%
%ADD19R,0.5300X0.6000*%
%ADD20R,1.4500X1.3000*%
%ADD21R,0.6200X0.6200*%
%ADD25C,0.6096*%
%ADD26R,0.5750X0.3500*%
%ADD27R,0.3500X0.5750*%
%ADD28C,0.1524*%
G36*
X549910Y383540D02*
Y245110D01*
X422910D01*
X417830Y240030D01*
X410210Y247650D01*
Y384810D01*
X548640D01*
X549910Y383540D01*
D02*
G37*
%LPC*%
G36*
X511810Y380172D02*
Y375920D01*
X516062D01*
X515277Y377815D01*
X513705Y379387D01*
X511810Y380172D01*
D02*
G37*
G36*
X509270D02*
X507375Y379387D01*
X505803Y377815D01*
X505018Y375920D01*
X509270D01*
Y380172D01*
D02*
G37*
G36*
X483870D02*
Y375920D01*
X488122D01*
X487337Y377815D01*
X485765Y379387D01*
X483870Y380172D01*
D02*
G37*
G36*
X481330D02*
X479435Y379387D01*
X477863Y377815D01*
X477078Y375920D01*
X481330D01*
Y380172D01*
D02*
G37*
G36*
X463550D02*
Y375920D01*
X467802D01*
X467017Y377815D01*
X465445Y379387D01*
X463550Y380172D01*
D02*
G37*
G36*
X461010D02*
X459115Y379387D01*
X457543Y377815D01*
X456758Y375920D01*
X461010D01*
Y380172D01*
D02*
G37*
G36*
X444500D02*
Y375920D01*
X448752D01*
X447967Y377815D01*
X446395Y379387D01*
X444500Y380172D01*
D02*
G37*
G36*
X441960D02*
X440065Y379387D01*
X438493Y377815D01*
X437708Y375920D01*
X441960D01*
Y380172D01*
D02*
G37*
G36*
X533400Y377632D02*
Y373380D01*
X537652D01*
X536867Y375275D01*
X535295Y376847D01*
X533400Y377632D01*
D02*
G37*
G36*
X530860D02*
X528965Y376847D01*
X527393Y375275D01*
X526608Y373380D01*
X530860D01*
Y377632D01*
D02*
G37*
G36*
X516062Y373380D02*
X511810D01*
Y369128D01*
X513705Y369913D01*
X515277Y371485D01*
X516062Y373380D01*
D02*
G37*
G36*
X509270D02*
X505018D01*
X505803Y371485D01*
X507375Y369913D01*
X509270Y369128D01*
Y373380D01*
D02*
G37*
G36*
X488122D02*
X483870D01*
Y369128D01*
X485765Y369913D01*
X487337Y371485D01*
X488122Y373380D01*
D02*
G37*
G36*
X481330D02*
X477078D01*
X477863Y371485D01*
X479435Y369913D01*
X481330Y369128D01*
Y373380D01*
D02*
G37*
G36*
X448752D02*
X444500D01*
Y369128D01*
X446395Y369913D01*
X447967Y371485D01*
X448752Y373380D01*
D02*
G37*
G36*
X441960D02*
X437708D01*
X438493Y371485D01*
X440065Y369913D01*
X441960Y369128D01*
Y373380D01*
D02*
G37*
G36*
X537652Y370840D02*
X533400D01*
Y366588D01*
X535295Y367373D01*
X536867Y368945D01*
X537652Y370840D01*
D02*
G37*
G36*
X530860D02*
X526608D01*
X527393Y368945D01*
X528965Y367373D01*
X530860Y366588D01*
Y370840D01*
D02*
G37*
G36*
X433070Y363662D02*
Y359410D01*
X437322D01*
X436537Y361305D01*
X434965Y362877D01*
X433070Y363662D01*
D02*
G37*
G36*
X430530D02*
X428635Y362877D01*
X427063Y361305D01*
X426278Y359410D01*
X430530D01*
Y363662D01*
D02*
G37*
G36*
X437322Y356870D02*
X433070D01*
Y352618D01*
X434965Y353403D01*
X436537Y354975D01*
X437322Y356870D01*
D02*
G37*
G36*
X430530D02*
X426278D01*
X427063Y354975D01*
X428635Y353403D01*
X430530Y352618D01*
Y356870D01*
D02*
G37*
G36*
X467802Y373380D02*
X456758D01*
X457543Y371485D01*
X458949Y370078D01*
X458941Y369337D01*
X458672Y368447D01*
X457438Y367935D01*
X456295Y366792D01*
X455676Y365298D01*
Y363682D01*
X456295Y362188D01*
X457273Y361210D01*
X457094Y359686D01*
X457094D01*
Y351936D01*
X454344D01*
Y350983D01*
X451201D01*
X449886Y352298D01*
Y357486D01*
X441654D01*
Y352298D01*
X436868Y347512D01*
X436511Y346977D01*
X436463Y346919D01*
X435078Y346409D01*
X434866Y346408D01*
X433070Y347152D01*
Y341630D01*
Y336108D01*
X434258Y336600D01*
X435768Y335793D01*
X435848Y334915D01*
X434705Y333772D01*
X434086Y332278D01*
Y330662D01*
X434705Y329168D01*
X435848Y328025D01*
X435887Y328008D01*
Y327189D01*
X435780Y327057D01*
X434394Y326284D01*
X433070Y326832D01*
Y321310D01*
Y315788D01*
X434965Y316573D01*
X435015Y316623D01*
X436539Y315991D01*
Y304875D01*
X436017Y304579D01*
X435695Y304465D01*
X435118Y304375D01*
X435050Y304373D01*
X433695Y305727D01*
X431800Y306512D01*
Y300990D01*
Y295468D01*
X433695Y296253D01*
X435207Y297765D01*
X436170Y298032D01*
X436659Y298144D01*
X437049Y298144D01*
X438877D01*
Y291486D01*
X436234D01*
Y282418D01*
X434710Y282115D01*
X433997Y283835D01*
X432425Y285407D01*
X430530Y286192D01*
Y280670D01*
Y275148D01*
X432425Y275933D01*
X432560Y276067D01*
X434028Y276345D01*
Y276345D01*
X434710Y276062D01*
X434710Y275806D01*
Y267498D01*
X433186Y266867D01*
X432425Y267627D01*
X430530Y268412D01*
Y262890D01*
Y257368D01*
X432425Y258153D01*
X433191Y258918D01*
X434710Y258930D01*
X434710Y258930D01*
X434710Y258930D01*
X443230D01*
Y267970D01*
X445770D01*
Y258930D01*
X450996D01*
X451193Y258455D01*
X452765Y256883D01*
X454660Y256098D01*
Y261620D01*
Y267314D01*
X454290Y267561D01*
Y277010D01*
X452766D01*
Y286477D01*
X462294D01*
Y280774D01*
X463247D01*
Y272020D01*
X463385Y271326D01*
X463724Y270819D01*
Y265124D01*
X466844D01*
X466895Y265041D01*
X466955Y264736D01*
X467348Y264148D01*
X467587Y263909D01*
X467595Y263897D01*
X467530Y262073D01*
X466433Y260975D01*
X465648Y259080D01*
X476692D01*
X476496Y259553D01*
X477515Y261077D01*
X486572D01*
X486775Y260588D01*
X487918Y259445D01*
X489412Y258826D01*
X490982D01*
Y256698D01*
X491833Y254645D01*
X493405Y253073D01*
X495300Y252288D01*
Y257810D01*
Y263509D01*
X493979Y264435D01*
X493665Y265192D01*
X492522Y266335D01*
X491765Y266649D01*
X490839Y267970D01*
X485140D01*
Y269240D01*
X483870D01*
Y274762D01*
X483244Y274503D01*
X482680Y274880D01*
Y274880D01*
X478310D01*
Y269240D01*
X475770D01*
Y274880D01*
X471400D01*
Y273356D01*
X466873D01*
Y279278D01*
X467544Y280524D01*
X477576D01*
Y280774D01*
X482826D01*
Y282215D01*
X489691D01*
X490385Y282353D01*
X490973Y282746D01*
X495924Y287697D01*
X497399Y287017D01*
X498183Y285125D01*
X498827Y284480D01*
X498183Y283835D01*
X497398Y281940D01*
X508442D01*
X507657Y283835D01*
X507013Y284480D01*
X507657Y285125D01*
X508442Y287020D01*
X502920D01*
Y288290D01*
X501650D01*
Y293984D01*
X500923Y294470D01*
Y315017D01*
X501666Y315325D01*
X502809Y316468D01*
X503428Y317962D01*
Y319578D01*
X502809Y321072D01*
X501666Y322215D01*
X501177Y322418D01*
Y324623D01*
X506742Y330188D01*
X507135Y330776D01*
X507273Y331470D01*
Y341939D01*
X509088Y343754D01*
X514556D01*
Y351186D01*
X514556D01*
Y352263D01*
X514872Y353787D01*
X525942D01*
X526145Y353298D01*
X527288Y352155D01*
X528045Y351841D01*
X528971Y350520D01*
X540192D01*
X539407Y352415D01*
X537835Y353987D01*
X535782Y354838D01*
X533654D01*
Y356408D01*
X533035Y357902D01*
X531892Y359045D01*
X530398Y359664D01*
X528782D01*
X527288Y359045D01*
X526145Y357902D01*
X525942Y357413D01*
X514556D01*
Y359826D01*
X506524D01*
Y357923D01*
X501856D01*
Y360336D01*
X493824D01*
X493824Y360336D01*
Y360336D01*
X492300Y360153D01*
X492115Y360337D01*
X490220Y361122D01*
Y355600D01*
X487680D01*
Y361122D01*
X485785Y360337D01*
X484213Y358765D01*
X483652Y357413D01*
X479150D01*
Y361210D01*
X476130D01*
Y355795D01*
X473590D01*
Y361210D01*
X470570D01*
Y359686D01*
X462675D01*
X462327Y360434D01*
X462207Y361210D01*
X463185Y362188D01*
X463804Y363682D01*
Y365298D01*
X463185Y366792D01*
X462439Y367538D01*
X463001Y369062D01*
X463391D01*
X465445Y369913D01*
X467017Y371485D01*
X467802Y373380D01*
D02*
G37*
G36*
X540192Y347980D02*
X535940D01*
Y343728D01*
X537835Y344513D01*
X539407Y346085D01*
X540192Y347980D01*
D02*
G37*
G36*
X533400D02*
X529148D01*
X529933Y346085D01*
X531505Y344513D01*
X533400Y343728D01*
Y347980D01*
D02*
G37*
G36*
X430530Y347152D02*
X428635Y346367D01*
X427063Y344795D01*
X426278Y342900D01*
X430530D01*
Y347152D01*
D02*
G37*
G36*
Y340360D02*
X426278D01*
X427063Y338465D01*
X428635Y336893D01*
X430530Y336108D01*
Y340360D01*
D02*
G37*
G36*
X535940Y329372D02*
Y325120D01*
X540192D01*
X539407Y327015D01*
X537835Y328587D01*
X535940Y329372D01*
D02*
G37*
G36*
X533400D02*
X531505Y328587D01*
X529933Y327015D01*
X529148Y325120D01*
X533400D01*
Y329372D01*
D02*
G37*
G36*
X430530Y326832D02*
X428635Y326047D01*
X427063Y324475D01*
X426278Y322580D01*
X430530D01*
Y326832D01*
D02*
G37*
G36*
X540192Y322580D02*
X535940D01*
Y318328D01*
X537835Y319113D01*
X539407Y320685D01*
X540192Y322580D01*
D02*
G37*
G36*
X533400D02*
X529148D01*
X529933Y320685D01*
X531505Y319113D01*
X533400Y318328D01*
Y322580D01*
D02*
G37*
G36*
X430530Y320040D02*
X426278D01*
X427063Y318145D01*
X428635Y316573D01*
X430530Y315788D01*
Y320040D01*
D02*
G37*
G36*
X429260Y306512D02*
X427365Y305727D01*
X425793Y304155D01*
X425008Y302260D01*
X429260D01*
Y306512D01*
D02*
G37*
G36*
X535940Y303972D02*
Y299720D01*
X540192D01*
X539407Y301615D01*
X537835Y303187D01*
X535940Y303972D01*
D02*
G37*
G36*
X533400D02*
X531505Y303187D01*
X529933Y301615D01*
X529148Y299720D01*
X533400D01*
Y303972D01*
D02*
G37*
G36*
X429260Y299720D02*
X425008D01*
X425793Y297825D01*
X427365Y296253D01*
X429260Y295468D01*
Y299720D01*
D02*
G37*
G36*
X540192Y297180D02*
X535940D01*
Y292928D01*
X537835Y293713D01*
X539407Y295285D01*
X540192Y297180D01*
D02*
G37*
G36*
X533400D02*
X529148D01*
X529933Y295285D01*
X531505Y293713D01*
X533400Y292928D01*
Y297180D01*
D02*
G37*
G36*
X504190Y293812D02*
Y289560D01*
X508442D01*
X507657Y291455D01*
X506085Y293027D01*
X504190Y293812D01*
D02*
G37*
G36*
X427990Y286192D02*
X426095Y285407D01*
X424523Y283835D01*
X423738Y281940D01*
X427990D01*
Y286192D01*
D02*
G37*
G36*
Y279400D02*
X423738D01*
X424523Y277505D01*
X426095Y275933D01*
X427990Y275148D01*
Y279400D01*
D02*
G37*
G36*
X508442D02*
X497398D01*
X498183Y277505D01*
X499402Y276285D01*
X498183Y275065D01*
X497398Y273170D01*
X508442D01*
X507657Y275065D01*
X506438Y276285D01*
X507657Y277505D01*
X508442Y279400D01*
D02*
G37*
G36*
X535940Y277302D02*
Y273050D01*
X540192D01*
X539407Y274945D01*
X537835Y276517D01*
X535940Y277302D01*
D02*
G37*
G36*
X533400D02*
X531505Y276517D01*
X529933Y274945D01*
X529148Y273050D01*
X533400D01*
Y277302D01*
D02*
G37*
G36*
X486410Y274762D02*
Y270510D01*
X490662D01*
X489877Y272405D01*
X488305Y273977D01*
X486410Y274762D01*
D02*
G37*
G36*
X523120Y323600D02*
X511320D01*
X510542Y323278D01*
X510220Y322500D01*
Y269600D01*
X510542Y268822D01*
X511320Y268500D01*
X523120D01*
X523898Y268822D01*
X524220Y269600D01*
Y322500D01*
X523898Y323278D01*
X523120Y323600D01*
D02*
G37*
G36*
X508442Y270630D02*
X504190D01*
Y266378D01*
X506085Y267163D01*
X507657Y268735D01*
X508442Y270630D01*
D02*
G37*
G36*
X501650D02*
X497398D01*
X498183Y268735D01*
X499755Y267163D01*
X501650Y266378D01*
Y270630D01*
D02*
G37*
G36*
X540192Y270510D02*
X535940D01*
Y266258D01*
X537835Y267043D01*
X539407Y268615D01*
X540192Y270510D01*
D02*
G37*
G36*
X533400D02*
X529148D01*
X529933Y268615D01*
X531505Y267043D01*
X533400Y266258D01*
Y270510D01*
D02*
G37*
G36*
X427990Y268412D02*
X426095Y267627D01*
X424523Y266055D01*
X423738Y264160D01*
X427990D01*
Y268412D01*
D02*
G37*
G36*
X457200Y267142D02*
Y262890D01*
X461452D01*
X460667Y264785D01*
X459095Y266357D01*
X457200Y267142D01*
D02*
G37*
G36*
X534670Y264602D02*
Y260350D01*
X538922D01*
X538137Y262245D01*
X536565Y263817D01*
X534670Y264602D01*
D02*
G37*
G36*
X532130D02*
X530235Y263817D01*
X528663Y262245D01*
X527878Y260350D01*
X532130D01*
Y264602D01*
D02*
G37*
G36*
X516890Y263332D02*
Y259080D01*
X521142D01*
X520357Y260975D01*
X518785Y262547D01*
X516890Y263332D01*
D02*
G37*
G36*
X514350D02*
X512455Y262547D01*
X510883Y260975D01*
X510098Y259080D01*
X514350D01*
Y263332D01*
D02*
G37*
G36*
X497840D02*
Y259080D01*
X502092D01*
X501307Y260975D01*
X499735Y262547D01*
X497840Y263332D01*
D02*
G37*
G36*
X427990Y261620D02*
X423738D01*
X424523Y259725D01*
X426095Y258153D01*
X427990Y257368D01*
Y261620D01*
D02*
G37*
G36*
X461452Y260350D02*
X457200D01*
Y256098D01*
X459095Y256883D01*
X460667Y258455D01*
X461452Y260350D01*
D02*
G37*
G36*
X538922Y257810D02*
X534670D01*
Y253558D01*
X536565Y254343D01*
X538137Y255915D01*
X538922Y257810D01*
D02*
G37*
G36*
X532130D02*
X527878D01*
X528663Y255915D01*
X530235Y254343D01*
X532130Y253558D01*
Y257810D01*
D02*
G37*
G36*
X521142Y256540D02*
X516890D01*
Y252288D01*
X518785Y253073D01*
X520357Y254645D01*
X521142Y256540D01*
D02*
G37*
G36*
X514350D02*
X510098D01*
X510883Y254645D01*
X512455Y253073D01*
X514350Y252288D01*
Y256540D01*
D02*
G37*
G36*
X502092D02*
X497840D01*
Y252288D01*
X499735Y253073D01*
X501307Y254645D01*
X502092Y256540D01*
D02*
G37*
G36*
X476692D02*
X472440D01*
Y252288D01*
X474335Y253073D01*
X475907Y254645D01*
X476692Y256540D01*
D02*
G37*
G36*
X469900D02*
X465648D01*
X466433Y254645D01*
X468005Y253073D01*
X469900Y252288D01*
Y256540D01*
D02*
G37*
%LPD*%
D15*
X457210Y320040D02*
D03*
X448010D02*
D03*
X449890Y302260D02*
D03*
X440690D02*
D03*
X477040Y269240D02*
D03*
X467840D02*
D03*
D16*
X497840Y347980D02*
D03*
Y356620D02*
D03*
X510540Y347470D02*
D03*
Y356110D02*
D03*
D17*
X464940Y293330D02*
D03*
X480060Y293290D02*
D03*
X465060Y288290D02*
D03*
Y283290D02*
D03*
X480060D02*
D03*
Y298290D02*
D03*
X465060D02*
D03*
X480060Y288290D02*
D03*
D18*
X470060Y298290D02*
D03*
X475060Y283290D02*
D03*
X470060D02*
D03*
X475060Y298290D02*
D03*
D19*
X482020Y313260D02*
D03*
X473280D02*
D03*
D20*
X444500Y267970D02*
D03*
Y283970D02*
D03*
D21*
X445770Y344170D02*
D03*
Y353370D02*
D03*
D25*
X529590Y355600D02*
D03*
X494538Y338328D02*
D03*
X490220Y292100D02*
D03*
Y262890D02*
D03*
X438150Y331470D02*
D03*
X532130Y372110D02*
D03*
X510540Y374650D02*
D03*
X488950Y355600D02*
D03*
X482600Y374650D02*
D03*
X534670Y323850D02*
D03*
Y349250D02*
D03*
Y298450D02*
D03*
X473840Y322050D02*
D03*
X534670Y271780D02*
D03*
X502920Y280670D02*
D03*
Y271900D02*
D03*
X533400Y259080D02*
D03*
X515620Y257810D02*
D03*
X502920Y288290D02*
D03*
X485140Y269240D02*
D03*
X496570Y257810D02*
D03*
X471170D02*
D03*
X462280Y374650D02*
D03*
X466090Y323850D02*
D03*
X449580Y336550D02*
D03*
X443230Y374650D02*
D03*
X431800Y358140D02*
D03*
Y341630D02*
D03*
X443538Y336858D02*
D03*
X431800Y321310D02*
D03*
X455930Y311150D02*
D03*
X453423Y294725D02*
D03*
X455930Y261620D02*
D03*
X447040Y311150D02*
D03*
X430530Y300990D02*
D03*
X429260Y280670D02*
D03*
Y262890D02*
D03*
X459740Y364490D02*
D03*
X488642Y343208D02*
D03*
X499364Y318770D02*
D03*
X483870Y322580D02*
D03*
X494030Y327660D02*
D03*
X464820Y311150D02*
D03*
D26*
X476485Y344170D02*
D03*
Y349170D02*
D03*
X458235Y344170D02*
D03*
Y339170D02*
D03*
Y349170D02*
D03*
X476485Y339170D02*
D03*
D27*
X469860Y332545D02*
D03*
X459860Y355795D02*
D03*
X469860D02*
D03*
X464860D02*
D03*
X474860Y332545D02*
D03*
X464860D02*
D03*
X474860Y355795D02*
D03*
X459860Y332545D02*
D03*
D28*
X510540Y356110D02*
X511050Y355600D01*
X498350Y356110D02*
X510540D01*
X511050Y355600D02*
X529590D01*
X497840Y356620D02*
X498350Y356110D01*
X476485Y339170D02*
X484370D01*
X494084Y337874D02*
X494538Y338328D01*
X484370Y339170D02*
X485666Y337874D01*
X494084D01*
X484096Y292808D02*
X484804Y292100D01*
X480542Y292808D02*
X484096D01*
X480060Y293290D02*
X480542Y292808D01*
X484804Y292100D02*
X490220D01*
X471170Y262890D02*
X490220D01*
X450450Y349170D02*
X458235D01*
X446070Y353550D02*
X450450Y349170D01*
X453118Y332545D02*
X459860D01*
X451789Y331216D02*
X453118Y332545D01*
X445097Y331216D02*
X451789D01*
X445097D02*
X448310Y328003D01*
X445470Y353550D02*
X445770D01*
X438150Y331470D02*
Y346230D01*
X445470Y353550D01*
X438352Y331268D02*
X438404Y331216D01*
X445097D01*
X438150Y331470D02*
X438352Y331268D01*
X465060Y283290D02*
Y288290D01*
Y272020D02*
Y283290D01*
X448820Y288290D02*
X465060D01*
X468630Y265430D02*
Y268450D01*
X465060Y272020D02*
X468630Y268450D01*
Y265430D02*
X471170Y262890D01*
X448310Y320040D02*
Y328003D01*
X438352Y304598D02*
Y331268D01*
Y304598D02*
X440690Y302260D01*
Y289940D02*
X444500Y286130D01*
Y283970D02*
X448820Y288290D01*
X440690Y289940D02*
Y302260D01*
X475055Y355600D02*
X488950D01*
X474860Y355795D02*
X475055Y355600D01*
X465475Y324465D02*
X466090Y323850D01*
X473840Y313820D02*
Y322050D01*
X464860Y332545D02*
X465475Y331930D01*
Y324465D02*
Y331930D01*
X473280Y313260D02*
X473840Y313820D01*
X469322Y296069D02*
Y297552D01*
X470060Y298290D01*
X467321Y294068D02*
X469322Y296069D01*
X465678Y294068D02*
X467321D01*
X464243Y294027D02*
X464940Y293330D01*
X465678Y294068D01*
X477040Y269240D02*
X485140D01*
X458235Y339170D02*
Y344170D01*
X453074Y339170D02*
X458235D01*
X450454Y336550D02*
X453074Y339170D01*
X456420Y317910D02*
X457580Y319070D01*
X443873Y342753D02*
X445770Y344650D01*
X443538Y336858D02*
X443873Y337193D01*
Y342753D01*
X449580Y336550D02*
X450454D01*
X455930Y311150D02*
X456420Y311640D01*
Y317910D01*
X453423Y294725D02*
X454121Y294027D01*
X464243D01*
X455318Y262232D02*
X455930Y261620D01*
X450988Y262232D02*
X455318D01*
X447552Y304598D02*
Y310638D01*
X447040Y311150D02*
X447552Y310638D01*
Y304598D02*
X449890Y302260D01*
X444500Y267970D02*
X445250D01*
X450988Y262232D01*
X459800Y355855D02*
Y364430D01*
X459740Y364490D02*
X459800Y364430D01*
Y355855D02*
X459860Y355795D01*
X476966Y343689D02*
X488161D01*
X488642Y343208D01*
X480798Y284028D02*
X489691D01*
X499110Y293447D01*
Y318516D01*
X480060Y283290D02*
X480798Y284028D01*
X476485Y344170D02*
X476966Y343689D01*
X499110Y318516D02*
X499364Y318770D01*
Y325374D01*
X505460Y331470D02*
Y342690D01*
X499364Y325374D02*
X505460Y331470D01*
X510240Y347470D02*
X510540D01*
X505460Y342690D02*
X510240Y347470D01*
X479066Y327384D02*
X483870Y322580D01*
X472163Y327384D02*
X479066D01*
X470824Y328723D02*
Y331581D01*
X469860Y332545D02*
X470824Y331581D01*
Y328723D02*
X472163Y327384D01*
X494030Y327660D02*
X494905Y328535D01*
X497445D01*
X494030Y301570D02*
Y327660D01*
X497445Y328535D02*
X500380Y331470D01*
Y345149D01*
X480060Y298290D02*
X490750D01*
X494030Y301570D01*
X500078Y345451D02*
Y346042D01*
Y345451D02*
X500380Y345149D01*
X498140Y347980D02*
X500078Y346042D01*
X497840Y347980D02*
X498140D01*
X496650Y349170D02*
X497840Y347980D01*
X476485Y349170D02*
X496650D01*
X464820Y311150D02*
X464940Y311030D01*
Y298410D02*
Y311030D01*
Y298410D02*
X465060Y298290D01*
X475387Y301397D02*
X482020Y308030D01*
X475060Y298290D02*
X475387Y298617D01*
X482020Y308030D02*
Y313260D01*
X475387Y298617D02*
Y301397D01*
M02*
