G04*
G04 #@! TF.GenerationSoftware,Altium Limited,Altium Designer,26.3.0 (6)*
G04*
G04 Layer_Color=65535*
%FSLAX44Y44*%
%MOMM*%
G71*
G04*
G04 #@! TF.SameCoordinates,757167C7-F4D3-4326-8035-5E9517D8C1C3*
G04*
G04*
G04 #@! TF.FilePolarity,Positive*
G04*
G01*
G75*
%ADD10C,0.2000*%
%ADD11C,0.1000*%
%ADD12C,0.1270*%
%ADD13C,0.0508*%
%ADD14C,0.0762*%
D10*
X475980Y369570D02*
G03*
X475980Y369570I-1000J0D01*
G01*
D11*
X486950Y283410D02*
G03*
X487950Y283410I500J0D01*
G01*
D02*
G03*
X486950Y283410I-500J0D01*
G01*
D12*
X479810Y359170D02*
X479860D01*
X454860D02*
X454910D01*
X454860Y354120D02*
Y359170D01*
Y329170D02*
Y334220D01*
X479810Y329170D02*
X479860D01*
X454860D02*
X454910D01*
X479860Y354120D02*
Y359170D01*
Y329170D02*
Y334220D01*
X490857Y298195D02*
X492380D01*
X491619D01*
Y293625D01*
X490857D01*
X492380D01*
X497713Y297433D02*
X496951Y298195D01*
X495427D01*
X494666Y297433D01*
Y294387D01*
X495427Y293625D01*
X496951D01*
X497713Y294387D01*
X502283Y293625D02*
X499236D01*
X502283Y296672D01*
Y297433D01*
X501521Y298195D01*
X499998D01*
X499236Y297433D01*
X480189Y368045D02*
X481712D01*
X480950D01*
Y363475D01*
X480189D01*
X481712D01*
X487044Y367284D02*
X486283Y368045D01*
X484759D01*
X483997Y367284D01*
Y364236D01*
X484759Y363475D01*
X486283D01*
X487044Y364236D01*
X488568Y363475D02*
X490091D01*
X489330D01*
Y368045D01*
X488568Y367284D01*
X494031Y369065D02*
Y373635D01*
X496316D01*
X497078Y372873D01*
Y371350D01*
X496316Y370588D01*
X494031D01*
X495555D02*
X497078Y369065D01*
X501649D02*
X498602D01*
X501649Y372112D01*
Y372873D01*
X500887Y373635D01*
X499364D01*
X498602Y372873D01*
X515113Y363475D02*
Y368045D01*
X517398D01*
X518160Y367284D01*
Y365760D01*
X517398Y364998D01*
X515113D01*
X516637D02*
X518160Y363475D01*
X519683D02*
X521207D01*
X520445D01*
Y368045D01*
X519683Y367284D01*
X436118Y312673D02*
X435356Y313435D01*
X433833D01*
X433071Y312673D01*
Y309627D01*
X433833Y308865D01*
X435356D01*
X436118Y309627D01*
X440689Y313435D02*
X439165Y312673D01*
X437642Y311150D01*
Y309627D01*
X438404Y308865D01*
X439927D01*
X440689Y309627D01*
Y310388D01*
X439927Y311150D01*
X437642D01*
X480568Y260604D02*
X479807Y261365D01*
X478283D01*
X477521Y260604D01*
Y257556D01*
X478283Y256795D01*
X479807D01*
X480568Y257556D01*
X485139Y261365D02*
X482092D01*
Y259080D01*
X483615Y259842D01*
X484377D01*
X485139Y259080D01*
Y257556D01*
X484377Y256795D01*
X482854D01*
X482092Y257556D01*
X437388Y326643D02*
X436627Y327405D01*
X435103D01*
X434341Y326643D01*
Y323596D01*
X435103Y322835D01*
X436627D01*
X437388Y323596D01*
X441959Y322835D02*
X438912D01*
X441959Y325882D01*
Y326643D01*
X441197Y327405D01*
X439674D01*
X438912Y326643D01*
X439420Y364263D02*
X438658Y365025D01*
X437135D01*
X436373Y364263D01*
Y361217D01*
X437135Y360455D01*
X438658D01*
X439420Y361217D01*
X440943Y360455D02*
X442467D01*
X441705D01*
Y365025D01*
X440943Y364263D01*
D13*
X491914Y320463D02*
X491067Y321309D01*
X489375D01*
X488528Y320463D01*
Y317077D01*
X489375Y316231D01*
X491067D01*
X491914Y317077D01*
X496146Y316231D02*
Y321309D01*
X493606Y318770D01*
X496992D01*
D14*
X429895Y288290D02*
X429260Y288924D01*
X427991D01*
X427356Y288290D01*
Y285750D01*
X427991Y285116D01*
X429260D01*
X429895Y285750D01*
X431165Y288290D02*
X431800Y288924D01*
X433069D01*
X433704Y288290D01*
Y287655D01*
X433069Y287020D01*
X432434D01*
X433069D01*
X433704Y286385D01*
Y285750D01*
X433069Y285116D01*
X431800D01*
X431165Y285750D01*
M02*
