G04*
G04 #@! TF.GenerationSoftware,Altium Limited,Altium Designer,26.3.0 (6)*
G04*
G04 Layer_Color=16711935*
%FSLAX44Y44*%
%MOMM*%
G71*
G04*
G04 #@! TF.SameCoordinates,8CC6794D-4A06-4C0D-8B41-CA3E8BEBCD13*
G04*
G04*
G04 #@! TF.FilePolarity,Negative*
G04*
G01*
G75*
%ADD25C,0.6096*%
%ADD32R,0.4200X0.2800*%
%ADD33R,0.6240X0.5040*%
%ADD34R,0.4200X0.5600*%
D25*
X529590Y355600D02*
D03*
X494538Y338328D02*
D03*
X490220Y292100D02*
D03*
Y262890D02*
D03*
X438150Y331470D02*
D03*
X532130Y372110D02*
D03*
X510540Y374650D02*
D03*
X488950Y355600D02*
D03*
X482600Y374650D02*
D03*
X534670Y323850D02*
D03*
Y349250D02*
D03*
Y298450D02*
D03*
X473840Y322050D02*
D03*
X534670Y271780D02*
D03*
X502920Y280670D02*
D03*
Y271900D02*
D03*
X533400Y259080D02*
D03*
X515620Y257810D02*
D03*
X502920Y288290D02*
D03*
X485140Y269240D02*
D03*
X496570Y257810D02*
D03*
X471170D02*
D03*
X462280Y374650D02*
D03*
X466090Y323850D02*
D03*
X449580Y336550D02*
D03*
X443230Y374650D02*
D03*
X431800Y358140D02*
D03*
Y341630D02*
D03*
X443538Y336858D02*
D03*
X431800Y321310D02*
D03*
X455930Y311150D02*
D03*
X453423Y294725D02*
D03*
X455930Y261620D02*
D03*
X447040Y311150D02*
D03*
X430530Y300990D02*
D03*
X429260Y280670D02*
D03*
Y262890D02*
D03*
X459740Y364490D02*
D03*
X488642Y343208D02*
D03*
X499364Y318770D02*
D03*
X483870Y322580D02*
D03*
X494030Y327660D02*
D03*
X464820Y311150D02*
D03*
D32*
X525540Y304800D02*
D03*
Y308300D02*
D03*
Y315300D02*
D03*
Y311800D02*
D03*
Y301300D02*
D03*
X510540D02*
D03*
X525540Y297800D02*
D03*
X510540D02*
D03*
X525540Y294300D02*
D03*
X510540D02*
D03*
X525540Y290800D02*
D03*
X510540D02*
D03*
X525540Y287300D02*
D03*
X510540D02*
D03*
X525540Y283800D02*
D03*
X510540D02*
D03*
X525540Y280300D02*
D03*
X510540D02*
D03*
X525540Y276800D02*
D03*
X510540D02*
D03*
Y311800D02*
D03*
Y304800D02*
D03*
Y315300D02*
D03*
Y308300D02*
D03*
D33*
X525040Y266400D02*
D03*
Y325700D02*
D03*
X511040D02*
D03*
Y266400D02*
D03*
D34*
X510540Y271900D02*
D03*
X525540D02*
D03*
Y320200D02*
D03*
X510540D02*
D03*
M02*
